<svg version="1.1" id="Layer_1" xmlns="http://www.w3.org/2000/svg" xmlns:xlink="http://www.w3.org/1999/xlink" x="0px" y="0px"
	 width="100%" viewBox="0 0 500 500" enable-background="new 0 0 500 500" xml:space="preserve">
<path fill="#000000" opacity="1.000000" stroke="none" 
	d="
M228.000000,501.000000 
	C152.000015,501.000000 76.500038,501.000000 1.000041,501.000000 
	C1.000027,334.333405 1.000027,167.666779 1.000013,1.000130 
	C167.666565,1.000087 334.333130,1.000087 500.999756,1.000043 
	C500.999847,167.666534 500.999847,334.333069 500.999939,500.999817 
	C410.166656,501.000000 319.333344,501.000000 228.000000,501.000000 
M217.218979,260.443359 
	C217.151871,286.880981 217.078140,313.318573 217.052643,339.756226 
	C217.051956,340.475342 217.571121,341.194977 218.799133,341.967987 
	C223.576660,341.959259 228.354202,341.950531 233.997772,341.972473 
	C234.320206,341.016785 234.917831,340.062439 234.922409,339.105225 
	C234.967224,329.752228 234.913025,320.398773 235.447632,311.027557 
	C235.634277,311.016602 235.820923,311.005676 236.943192,311.000671 
	C244.295456,311.000427 251.647736,311.000214 259.669128,311.005737 
	C260.115204,311.001709 260.561249,310.997681 261.599884,310.962280 
	C262.060883,310.645905 262.521851,310.329529 262.992493,309.087402 
	C262.642120,304.685883 262.291779,300.284332 261.538879,295.120544 
	C252.407623,295.100403 243.276352,295.080231 233.501404,294.503906 
	C233.711060,288.984283 233.920715,283.464630 235.049942,277.996796 
	C242.851303,277.998077 250.653641,278.068573 258.453491,277.960632 
	C260.952545,277.926056 263.445068,277.419678 265.969879,276.178741 
	C265.958069,271.077972 265.946259,265.977173 265.511841,260.129761 
	C249.687469,260.145966 233.863098,260.162140 217.218979,260.443359 
M290.947052,342.027344 
	C291.301880,341.568787 291.965820,341.111023 291.967072,340.651581 
	C292.015472,322.027527 292.009064,303.403290 291.950989,284.779266 
	C291.950165,284.512177 291.207672,284.247345 290.010193,283.859680 
	C285.329071,283.589783 280.647980,283.319885 275.481323,283.359131 
	C275.324615,283.901520 275.167877,284.443878 274.997955,285.655396 
	C274.997345,286.101593 274.996765,286.547760 274.993835,287.932526 
	C274.995789,304.227264 274.968323,320.522095 275.042999,336.816498 
	C275.050903,338.540558 275.658569,340.261810 276.919891,341.995209 
	C281.303192,341.987000 285.686523,341.978760 290.947052,342.027344 
M437.529205,341.285095 
	C437.695465,337.564026 437.832153,333.841309 438.035034,330.122253 
	C438.328064,324.750031 438.669098,319.380463 438.991669,313.350647 
	C439.839386,310.192627 440.105743,306.710144 441.650970,303.941406 
	C445.330811,297.347778 452.264191,297.893127 459.360992,297.803864 
	C458.860352,291.811371 458.411560,286.439301 457.976929,281.236755 
	C449.520691,280.293091 444.120026,284.298859 438.585846,289.299469 
	C438.144684,286.819427 437.843567,285.126678 437.479004,283.077240 
	C432.469421,283.077240 427.683502,283.077240 422.262817,283.606201 
	C422.204193,302.637360 422.140808,321.668549 422.119659,340.699738 
	C422.119202,341.097961 422.606873,341.496674 423.804016,341.952057 
	C428.177887,341.655090 432.551758,341.358154 437.529205,341.285095 
M144.785446,217.331787 
	C143.859360,216.881165 142.933273,216.430557 141.747070,215.366455 
	C139.064255,212.660324 136.139099,210.149490 133.760666,207.198074 
	C130.864120,203.603760 127.390121,202.330566 122.231567,202.963730 
	C120.099289,204.517792 117.733986,205.835037 115.873695,207.665527 
	C106.032501,217.349045 96.329422,227.172791 86.554100,236.923492 
	C83.213104,240.256042 80.111839,240.473511 77.349648,237.597748 
	C75.176315,235.335037 73.232964,232.830872 70.922394,230.724762 
	C65.842751,226.094604 59.939407,223.236984 53.030678,225.623703 
	C44.454060,228.586624 42.111328,241.355591 48.711281,248.196381 
	C56.679306,256.455170 64.587326,264.787048 72.884613,272.706696 
	C77.196487,276.822296 82.555183,280.329102 88.584023,276.061798 
	C93.869545,272.320648 98.540749,267.711639 103.485222,263.442993 
	C103.485222,263.442993 103.507584,263.406799 104.068748,263.294006 
	C105.000679,263.444824 105.932617,263.595642 107.156700,264.403870 
	C111.708954,271.080261 116.242104,277.769806 120.818024,284.429932 
	C127.373695,293.971558 133.885605,303.544678 140.562927,313.000732 
	C144.439117,318.489990 148.556961,323.811523 152.657333,329.138245 
	C154.493668,331.523804 156.577347,331.545685 158.355194,329.026459 
	C164.626572,320.139771 171.015778,311.329285 177.036545,302.274628 
	C182.924911,293.419098 188.312210,284.231812 194.120255,275.320984 
	C198.055740,269.283081 202.441742,263.540009 206.427673,257.533295 
	C208.907959,253.795609 211.177109,249.895645 213.261414,245.921829 
	C217.929855,237.021332 223.644424,228.420166 226.670288,218.972412 
	C230.217010,207.898438 232.681717,196.126694 230.890533,184.268997 
	C229.770905,176.857071 228.282562,169.347153 225.710724,162.339554 
	C219.944595,146.628342 209.347244,134.934174 195.174774,125.742630 
	C186.179733,119.908897 176.696960,116.391090 166.494186,115.185829 
	C153.641129,113.667503 140.427292,113.251228 128.274048,118.607750 
	C120.092369,122.213829 111.914619,126.635162 105.119682,132.340729 
	C99.059097,137.429688 94.628075,144.590195 89.962845,151.179840 
	C82.694351,161.446625 80.196869,173.495895 79.130188,185.669724 
	C78.100945,197.416138 79.848015,209.021698 83.931526,220.203415 
	C85.090187,223.376144 86.496071,223.797287 88.839897,221.377762 
	C95.736107,214.258850 102.320732,206.790497 109.672119,200.175507 
	C115.338509,195.076721 117.609917,189.648132 117.163918,181.956833 
	C116.351357,167.943863 122.686981,157.113602 133.641251,148.361069 
	C145.687790,138.735809 158.708282,138.516739 172.423615,142.871628 
	C175.214020,143.757645 177.527893,146.144470 180.603790,148.202286 
	C174.318283,151.754135 169.216919,154.693970 164.062668,157.537979 
	C152.009079,164.188889 151.998749,164.170258 152.003494,178.333496 
	C152.003769,179.166412 151.781372,180.079971 152.046783,180.817780 
	C153.010300,183.496155 153.457016,186.832352 155.336441,188.616730 
	C160.094833,193.134521 165.524277,196.945557 170.927567,201.721222 
	C174.586334,205.105194 178.245117,208.489182 181.899063,211.878189 
	C173.925278,222.288361 157.781738,224.951004 145.004730,217.994492 
	C145.004730,217.994492 145.045883,217.940918 144.785446,217.331787 
M415.951538,315.329224 
	C415.593689,311.672638 415.637848,307.916626 414.764893,304.387451 
	C413.891052,300.854584 412.485168,297.321869 410.637695,294.186737 
	C405.817596,286.007263 398.002197,282.446167 388.932281,281.154510 
	C379.365692,279.792114 370.787689,282.633698 364.252106,289.277954 
	C356.457397,297.202301 355.637238,307.623383 356.906555,318.211243 
	C357.197754,320.640137 357.222504,323.288330 358.248932,325.410461 
	C363.799988,336.887329 372.711090,343.521149 385.877686,342.914398 
	C390.538086,342.699615 395.281342,341.989349 399.761261,340.713562 
	C405.788849,338.997009 409.487488,334.356384 412.071533,328.809448 
	C406.301697,326.087128 401.544006,324.408203 394.405670,328.088043 
	C384.397125,333.247437 374.780487,330.145660 373.948364,317.010834 
	C386.205475,317.003082 398.462769,317.028961 410.719421,316.949249 
	C412.448029,316.937988 414.173248,316.411163 415.951538,315.329224 
M308.666626,341.997589 
	C311.053650,341.364014 314.355530,341.494110 315.647461,339.946381 
	C318.864197,336.092834 321.361511,331.581055 323.766632,327.127747 
	C325.396454,324.109894 326.753784,324.416901 328.409698,326.792206 
	C331.046875,330.575012 333.397095,334.576782 336.258911,338.175629 
	C337.571838,339.826721 339.712097,341.592590 341.650665,341.818695 
	C346.215088,342.351044 350.883789,341.989319 355.832153,341.989319 
	C354.967865,339.642883 354.662689,337.807648 353.714050,336.408722 
	C348.932220,329.357117 344.033813,322.382507 339.060791,315.463898 
	C337.564667,313.382446 336.934540,311.786041 338.729614,309.347382 
	C342.342621,304.438965 345.538727,299.222992 348.889740,294.122650 
	C351.176392,290.642365 353.434021,287.142975 356.121338,283.011475 
	C350.938995,283.011475 346.769348,283.228729 342.633392,282.948425 
	C338.744446,282.684875 336.472229,284.399292 334.617798,287.598145 
	C332.321442,291.559235 329.658844,295.308044 326.737946,299.787262 
	C325.413177,298.310974 324.476929,297.485443 323.807465,296.481964 
	C321.516266,293.047791 319.426605,289.474060 317.029633,286.118164 
	C316.136688,284.867950 314.657074,283.284973 313.361847,283.205261 
	C308.026215,282.876984 302.658661,283.067871 296.114380,283.067871 
	C301.982880,291.551453 306.842529,298.812805 311.952423,305.893585 
	C316.573914,312.297577 316.467804,315.457062 310.855774,320.952271 
	C310.622711,321.180481 310.209167,321.255005 310.034729,321.508026 
	C305.591248,327.952820 301.168488,334.411926 295.968201,341.997406 
	C300.962311,341.997406 304.378967,341.997406 308.666626,341.997589 
M272.988159,263.027435 
	C272.992035,264.024200 273.129303,265.041809 272.977173,266.014160 
	C272.228333,270.801331 274.777435,274.156555 278.800385,275.099945 
	C282.061218,275.864563 286.745331,275.662994 289.147400,273.781952 
	C292.686676,271.010376 294.674469,266.004944 291.623291,261.539490 
	C289.973267,259.124664 286.944672,256.954773 284.126160,256.187805 
	C279.044769,254.805145 275.203888,257.345154 272.988159,263.027435 
z"/>
<path fill="#0D1112" opacity="1.000000" stroke="none" 
	d="
M170.684937,201.039673 
	C165.524277,196.945557 160.094833,193.134521 155.336441,188.616730 
	C153.457016,186.832352 153.010300,183.496155 152.046783,180.817780 
	C151.781372,180.079971 152.003769,179.166412 152.003494,178.333496 
	C151.998749,164.170258 152.009079,164.188889 164.062668,157.537979 
	C169.216919,154.693970 174.318283,151.754135 180.603790,148.202286 
	C177.527893,146.144470 175.214020,143.757645 172.423615,142.871628 
	C158.708282,138.516739 145.687790,138.735809 133.641251,148.361069 
	C122.686981,157.113602 116.351357,167.943863 117.163918,181.956833 
	C117.609917,189.648132 115.338509,195.076721 109.672119,200.175507 
	C102.320732,206.790497 95.736107,214.258850 88.839897,221.377762 
	C86.496071,223.797287 85.090187,223.376144 83.931526,220.203415 
	C79.848015,209.021698 78.100945,197.416138 79.130188,185.669724 
	C80.196869,173.495895 82.694351,161.446625 89.962845,151.179840 
	C94.628075,144.590195 99.059097,137.429688 105.119682,132.340729 
	C111.914619,126.635162 120.092369,122.213829 128.274048,118.607750 
	C140.427292,113.251228 153.641129,113.667503 166.494186,115.185829 
	C176.696960,116.391090 186.179733,119.908897 195.174774,125.742630 
	C209.347244,134.934174 219.944595,146.628342 225.710724,162.339554 
	C228.282562,169.347153 229.770905,176.857071 230.890533,184.268997 
	C232.681717,196.126694 230.217010,207.898438 226.670288,218.972412 
	C223.644424,228.420166 217.929855,237.021332 213.261414,245.921829 
	C211.177109,249.895645 208.907959,253.795609 206.427673,257.533295 
	C202.441742,263.540009 198.055740,269.283081 194.120255,275.320984 
	C188.312210,284.231812 182.924911,293.419098 177.036545,302.274628 
	C171.015778,311.329285 164.626572,320.139771 158.355194,329.026459 
	C156.577347,331.545685 154.493668,331.523804 152.657333,329.138245 
	C148.556961,323.811523 144.439117,318.489990 140.562927,313.000732 
	C133.885605,303.544678 127.373695,293.971558 120.818024,284.429932 
	C116.242104,277.769806 111.708954,271.080261 106.957069,263.744934 
	C107.108871,261.734894 107.049736,260.005432 107.884430,259.099731 
	C111.111038,255.598694 114.622749,252.360413 118.015068,249.011353 
	C118.001884,248.998459 118.017860,249.030609 118.263474,248.952469 
	C118.695084,248.594452 118.881096,248.314590 119.033157,248.021942 
	C118.999214,248.009171 119.047478,248.063370 119.320465,247.952621 
	C120.089500,247.246872 120.585556,246.651871 121.042404,246.034637 
	C121.003204,246.012390 121.056053,246.085434 121.343201,245.995850 
	C122.130867,245.304489 122.631371,244.702698 123.073456,244.064270 
	C123.015022,244.027603 123.104591,244.132538 123.421783,244.030533 
	C126.127632,241.604691 128.516281,239.280853 130.944031,236.960602 
	C130.983139,236.964188 130.952148,236.892029 131.224731,236.757965 
	C132.329880,235.752594 133.162476,234.881287 133.998749,234.006485 
	C134.002426,234.003006 134.012192,233.999252 134.307373,233.901306 
	C135.436707,232.897217 136.270874,231.991089 137.070007,231.057449 
	C137.034943,231.029938 137.042343,231.118744 137.464294,231.045807 
	C139.584747,230.949036 141.283249,230.925232 143.303909,230.963684 
	C144.419434,231.326431 145.212799,231.626892 146.391235,232.041656 
	C158.900177,235.544037 170.570572,234.710815 181.265121,227.718491 
	C187.511780,223.634277 191.739838,217.613815 196.454468,211.816788 
	C205.496719,200.698578 205.772583,188.473297 204.785187,175.586639 
	C204.634766,173.623520 203.344223,171.747772 202.211807,168.904709 
	C193.414597,177.152924 185.201965,184.648254 177.258652,192.418915 
	C174.702499,194.919479 172.856064,198.145523 170.684937,201.039673 
z"/>
<path fill="#0F1213" opacity="1.000000" stroke="none" 
	d="
M373.014648,317.068848 
	C374.780487,330.145660 384.397125,333.247437 394.405670,328.088043 
	C401.544006,324.408203 406.301697,326.087128 412.070801,328.808777 
	C409.487488,334.356384 405.788849,338.997009 399.761261,340.713562 
	C395.281342,341.989349 390.538086,342.699615 385.877686,342.914398 
	C372.711090,343.521149 363.799988,336.887329 358.248932,325.410461 
	C357.222504,323.288330 357.197754,320.640137 356.906555,318.211243 
	C355.637238,307.623383 356.457397,297.202301 364.252106,289.277954 
	C370.787689,282.633698 379.365692,279.792114 388.932281,281.154510 
	C398.002197,282.446167 405.817596,286.007263 410.637695,294.186737 
	C412.485168,297.321869 413.891052,300.854584 414.764893,304.387451 
	C415.637848,307.916626 415.593689,311.672638 415.467590,315.692505 
	C402.119904,316.035553 389.256012,315.988464 376.392578,316.041931 
	C375.265198,316.046631 374.140564,316.710907 373.014648,317.068848 
M378.821716,305.004883 
	C385.385773,305.004883 391.949829,305.004883 398.600250,305.004883 
	C397.575867,298.194397 392.556244,293.749390 386.891510,293.999054 
	C379.523804,294.323730 374.325653,298.623901 374.003845,304.666229 
	C374.315002,304.764709 374.622650,304.933075 374.937897,304.948792 
	C375.931183,304.998230 376.927338,304.990356 378.821716,305.004883 
z"/>
<path fill="#0C1011" opacity="1.000000" stroke="none" 
	d="
M233.131729,341.941772 
	C228.354202,341.950531 223.576660,341.959259 218.357605,341.479309 
	C217.950546,314.357147 217.984985,287.723633 218.486176,261.063141 
	C234.613419,260.982880 250.273941,260.929657 265.934448,260.876404 
	C265.946259,265.977173 265.958069,271.077972 265.492432,276.607056 
	C256.197723,277.032715 247.380051,276.987946 238.563538,277.068726 
	C237.083252,277.082245 235.607956,277.639160 234.130356,277.945007 
	C233.920715,283.464630 233.711060,288.984283 234.004730,295.168091 
	C243.652512,295.849121 252.796982,295.865967 261.941437,295.882812 
	C262.291779,300.284332 262.642120,304.685883 262.692444,309.564789 
	C261.930664,310.359344 261.468994,310.676514 261.007324,310.993683 
	C260.561249,310.997681 260.115204,311.001709 259.043884,310.701965 
	C250.948273,310.597015 243.477921,310.795868 236.007584,310.994720 
	C235.820923,311.005676 235.634277,311.016602 234.798126,311.255951 
	C234.057846,320.995087 233.967056,330.505798 233.674377,340.147339 
	C233.259933,340.527618 233.116287,340.811920 233.049011,341.335419 
	C233.056488,341.539795 233.131729,341.941803 233.131729,341.941772 
z"/>
<path fill="#0F1213" opacity="1.000000" stroke="none" 
	d="
M308.231140,341.997498 
	C304.378967,341.997406 300.962311,341.997406 295.968201,341.997406 
	C301.168488,334.411926 305.591248,327.952820 310.034729,321.508026 
	C310.209167,321.255005 310.622711,321.180481 310.855774,320.952271 
	C316.467804,315.457062 316.573914,312.297577 311.952423,305.893585 
	C306.842529,298.812805 301.982880,291.551453 296.114380,283.067871 
	C302.658661,283.067871 308.026215,282.876984 313.361847,283.205261 
	C314.657074,283.284973 316.136688,284.867950 317.029633,286.118164 
	C319.426605,289.474060 321.516266,293.047791 323.807465,296.481964 
	C324.476929,297.485443 325.413177,298.310974 326.737946,299.787262 
	C329.658844,295.308044 332.321442,291.559235 334.617798,287.598145 
	C336.472229,284.399292 338.744446,282.684875 342.633392,282.948425 
	C346.769348,283.228729 350.938995,283.011475 356.121338,283.011475 
	C353.434021,287.142975 351.176392,290.642365 348.889740,294.122650 
	C345.538727,299.222992 342.342621,304.438965 338.729614,309.347382 
	C336.934540,311.786041 337.564667,313.382446 339.060791,315.463898 
	C344.033813,322.382507 348.932220,329.357117 353.714050,336.408722 
	C354.662689,337.807648 354.967865,339.642883 355.832153,341.989319 
	C350.883789,341.989319 346.215088,342.351044 341.650665,341.818695 
	C339.712097,341.592590 337.571838,339.826721 336.258911,338.175629 
	C333.397095,334.576782 331.046875,330.575012 328.409698,326.792206 
	C326.753784,324.416901 325.396454,324.109894 323.766632,327.127747 
	C321.361511,331.581055 318.864197,336.092834 315.647461,339.946381 
	C314.355530,341.494110 311.053650,341.364014 308.231140,341.997498 
z"/>
<path fill="#68B350" opacity="1.000000" stroke="none" 
	d="
M103.483307,263.485962 
	C98.540749,267.711639 93.869545,272.320648 88.584023,276.061798 
	C82.555183,280.329102 77.196487,276.822296 72.884613,272.706696 
	C64.587326,264.787048 56.679306,256.455170 48.711281,248.196381 
	C42.111328,241.355591 44.454060,228.586624 53.030678,225.623703 
	C59.939407,223.236984 65.842751,226.094604 70.922394,230.724762 
	C73.232964,232.830872 75.176315,235.335037 77.349648,237.597748 
	C80.111839,240.473511 83.213104,240.256042 86.554100,236.923492 
	C96.329422,227.172791 106.032501,217.349045 115.873695,207.665527 
	C117.733986,205.835037 120.099289,204.517792 122.448608,203.328278 
	C119.678848,207.386536 116.918427,211.295212 113.657974,214.729095 
	C106.940842,221.803467 100.011589,228.680115 93.056656,235.523315 
	C90.060974,238.470901 87.882004,241.446823 89.410904,245.972549 
	C89.789597,247.093506 89.256775,248.501892 89.245255,249.779083 
	C89.212921,253.363647 89.233978,256.948700 89.233978,260.809570 
	C90.849747,260.809570 92.275078,261.254486 93.058701,260.733734 
	C96.752960,258.278778 99.389221,259.339081 101.684486,262.705444 
	C101.995880,263.162140 102.869835,263.235229 103.483307,263.485962 
z"/>
<path fill="#6DBA4E" opacity="1.000000" stroke="none" 
	d="
M103.484268,263.464478 
	C102.869835,263.235229 101.995880,263.162140 101.684486,262.705444 
	C99.389221,259.339081 96.752960,258.278778 93.058701,260.733734 
	C92.275078,261.254486 90.849747,260.809570 89.233978,260.809570 
	C89.233978,256.948700 89.212921,253.363647 89.245255,249.779083 
	C89.256775,248.501892 89.789597,247.093506 89.410904,245.972549 
	C87.882004,241.446823 90.060974,238.470901 93.056656,235.523315 
	C100.011589,228.680115 106.940842,221.803467 113.657974,214.729095 
	C116.918427,211.295212 119.678848,207.386536 122.825066,203.405716 
	C127.390121,202.330566 130.864120,203.603760 133.760666,207.198074 
	C136.139099,210.149490 139.064255,212.660324 141.930634,216.021957 
	C143.091431,217.098602 144.068665,217.519760 145.045883,217.940918 
	C145.045883,217.940918 145.004730,217.994492 145.016754,218.325653 
	C146.296844,220.043259 147.564926,221.429688 148.986908,222.984375 
	C146.230316,223.445282 143.574188,223.889389 141.111893,224.301086 
	C143.213257,227.575439 144.609711,229.751389 146.006149,231.927338 
	C145.212799,231.626892 144.419434,231.326431 143.139252,230.671661 
	C140.413101,227.999298 138.695786,229.335480 137.042343,231.118744 
	C137.042343,231.118744 137.034943,231.029938 136.690308,231.037720 
	C135.567856,232.030106 134.790024,233.014679 134.012192,233.999252 
	C134.012192,233.999252 134.002426,234.003006 133.664246,234.032623 
	C132.534775,235.005508 131.743454,235.948761 130.952148,236.892029 
	C130.952148,236.892029 130.983139,236.964188 130.601196,236.969452 
	C125.524445,236.624451 123.286644,238.875824 123.104591,244.132538 
	C123.104591,244.132538 123.015022,244.027603 122.733078,244.070648 
	C121.986099,244.770935 121.521072,245.428177 121.056053,246.085434 
	C121.056053,246.085434 121.003204,246.012390 120.708740,246.056152 
	C119.958679,246.754395 119.503082,247.408890 119.047485,248.063370 
	C119.047478,248.063370 118.999214,248.009171 118.797592,248.115448 
	C118.403275,248.491348 118.210564,248.760971 118.017853,249.030609 
	C118.017860,249.030609 118.001884,248.998459 117.646370,249.005783 
	C115.139755,250.401794 112.183510,251.311737 111.011559,253.282639 
	C108.829170,256.952850 102.982246,257.869995 103.507584,263.406799 
	C103.507584,263.406799 103.485222,263.442993 103.484268,263.464478 
z"/>
<path fill="#77C14E" opacity="1.000000" stroke="none" 
	d="
M146.391235,232.041656 
	C144.609711,229.751389 143.213257,227.575439 141.111893,224.301086 
	C143.574188,223.889389 146.230316,223.445282 148.986908,222.984375 
	C147.564926,221.429688 146.296844,220.043259 145.043884,218.305634 
	C157.781738,224.951004 173.925278,222.288361 181.901474,211.875671 
	C178.245117,208.489182 174.586334,205.105194 170.806244,201.380447 
	C172.856064,198.145523 174.702499,194.919479 177.258652,192.418915 
	C185.201965,184.648254 193.414597,177.152924 202.211807,168.904709 
	C203.344223,171.747772 204.634766,173.623520 204.785187,175.586639 
	C205.772583,188.473297 205.496719,200.698578 196.454468,211.816788 
	C191.739838,217.613815 187.511780,223.634277 181.265121,227.718491 
	C170.570572,234.710815 158.900177,235.544037 146.391235,232.041656 
z"/>
<path fill="#0D1011" opacity="1.000000" stroke="none" 
	d="
M422.897583,283.077240 
	C427.683502,283.077240 432.469421,283.077240 437.479004,283.077240 
	C437.843567,285.126678 438.144684,286.819427 438.585846,289.299469 
	C444.120026,284.298859 449.520691,280.293091 457.976929,281.236755 
	C458.411560,286.439301 458.860352,291.811371 459.360992,297.803864 
	C452.264191,297.893127 445.330811,297.347778 441.650970,303.941406 
	C440.105743,306.710144 439.839386,310.192627 438.592590,313.764526 
	C437.792328,315.671906 437.071960,317.159454 437.043945,318.659973 
	C436.904388,326.125183 436.947083,333.593811 436.925629,341.061218 
	C432.551758,341.358154 428.177887,341.655090 423.368896,341.465576 
	C422.921722,321.678467 422.909637,302.377869 422.897583,283.077240 
z"/>
<path fill="#0C1011" opacity="1.000000" stroke="none" 
	d="
M274.996185,286.993958 
	C274.996765,286.547760 274.997345,286.101593 275.246338,285.162903 
	C275.652100,284.130310 275.809479,283.590149 275.966858,283.050018 
	C280.647980,283.319885 285.329071,283.589783 290.493958,284.383911 
	C290.986420,302.354034 291.019104,319.800018 290.963074,337.245667 
	C290.958038,338.821564 290.381134,340.395630 290.069824,341.970551 
	C285.686523,341.978760 281.303192,341.987000 276.459900,341.522888 
	C275.999939,324.753693 276.029846,308.456696 275.955994,292.160126 
	C275.948181,290.436646 275.330811,288.715942 274.996185,286.993958 
z"/>
<path fill="#0F1213" opacity="1.000000" stroke="none" 
	d="
M273.015198,262.611725 
	C275.203888,257.345154 279.044769,254.805145 284.126160,256.187805 
	C286.944672,256.954773 289.973267,259.124664 291.623291,261.539490 
	C294.674469,266.004944 292.686676,271.010376 289.147400,273.781952 
	C286.745331,275.662994 282.061218,275.864563 278.800385,275.099945 
	C274.777435,274.156555 272.228333,270.801331 272.977173,266.014160 
	C273.129303,265.041809 272.992035,264.024200 273.015198,262.611725 
z"/>
<path fill="#A1A3A2" opacity="1.000000" stroke="none" 
	d="
M218.019440,261.090149 
	C217.984985,287.723633 217.950546,314.357147 217.881989,341.452515 
	C217.571121,341.194977 217.051956,340.475342 217.052643,339.756226 
	C217.078140,313.318573 217.151871,286.880981 217.640167,260.539124 
	C218.061340,260.634918 218.019440,261.090149 218.019440,261.090149 
z"/>
<path fill="#A1A3A2" opacity="1.000000" stroke="none" 
	d="
M290.508423,341.998962 
	C290.381134,340.395630 290.958038,338.821564 290.963074,337.245667 
	C291.019104,319.800018 290.986420,302.354034 290.894531,284.444824 
	C291.207672,284.247345 291.950165,284.512177 291.950989,284.779266 
	C292.009064,303.403290 292.015472,322.027527 291.967072,340.651581 
	C291.965820,341.111023 291.301880,341.568787 290.508423,341.998962 
z"/>
<path fill="#484848" opacity="1.000000" stroke="none" 
	d="
M422.580200,283.341736 
	C422.909637,302.377869 422.921722,321.678467 422.900330,341.437134 
	C422.606873,341.496674 422.119202,341.097961 422.119659,340.699738 
	C422.140808,321.668549 422.204193,302.637360 422.580200,283.341736 
z"/>
<path fill="#1B1C1C" opacity="1.000000" stroke="none" 
	d="
M274.994995,287.463257 
	C275.330811,288.715942 275.948181,290.436646 275.955994,292.160126 
	C276.029846,308.456696 275.999939,324.753693 275.993958,341.517487 
	C275.658569,340.261810 275.050903,338.540558 275.042999,336.816498 
	C274.968323,320.522095 274.995789,304.227264 274.994995,287.463257 
z"/>
<path fill="#C5C5C5" opacity="1.000000" stroke="none" 
	d="
M218.486176,261.063141 
	C218.019440,261.090149 218.061340,260.634918 218.050034,260.406616 
	C233.863098,260.162140 249.687469,260.145966 265.723145,260.503082 
	C250.273941,260.929657 234.613419,260.982880 218.486176,261.063141 
z"/>
<path fill="#68B350" opacity="1.000000" stroke="none" 
	d="
M103.788162,263.350403 
	C102.982246,257.869995 108.829170,256.952850 111.011559,253.282639 
	C112.183510,251.311737 115.139755,250.401794 117.659554,249.018677 
	C114.622749,252.360413 111.111038,255.598694 107.884430,259.099731 
	C107.049736,260.005432 107.108871,261.734894 106.810997,263.416199 
	C105.932617,263.595642 105.000679,263.444824 103.788162,263.350403 
z"/>
<path fill="#484848" opacity="1.000000" stroke="none" 
	d="
M373.481506,317.039856 
	C374.140564,316.710907 375.265198,316.046631 376.392578,316.041931 
	C389.256012,315.988464 402.119904,316.035553 415.441833,316.089355 
	C414.173248,316.411163 412.448029,316.937988 410.719421,316.949249 
	C398.462769,317.028961 386.205475,317.003082 373.481506,317.039856 
z"/>
<path fill="#FEFFFF" opacity="1.000000" stroke="none" 
	d="
M234.590149,277.970886 
	C235.607956,277.639160 237.083252,277.082245 238.563538,277.068726 
	C247.380051,276.987946 256.197723,277.032715 265.477783,277.082275 
	C263.445068,277.419678 260.952545,277.926056 258.453491,277.960632 
	C250.653641,278.068573 242.851303,277.998077 234.590149,277.970886 
z"/>
<path fill="#FEFFFF" opacity="1.000000" stroke="none" 
	d="
M233.876282,340.016541 
	C233.967056,330.505798 234.057846,320.995087 234.517807,311.264893 
	C234.913025,320.398773 234.967224,329.752228 234.922409,339.105225 
	C234.917831,340.062439 234.320206,341.016785 233.564758,341.957153 
	C233.131729,341.941803 233.056488,341.539795 233.308197,341.243591 
	C233.665344,340.637085 233.770798,340.326813 233.876282,340.016541 
z"/>
<path fill="#1B1C1C" opacity="1.000000" stroke="none" 
	d="
M437.227417,341.173157 
	C436.947083,333.593811 436.904388,326.125183 437.043945,318.659973 
	C437.071960,317.159454 437.792328,315.671906 438.591583,314.094055 
	C438.669098,319.380463 438.328064,324.750031 438.035034,330.122253 
	C437.832153,333.841309 437.695465,337.564026 437.227417,341.173157 
z"/>
<path fill="#C5C5C5" opacity="1.000000" stroke="none" 
	d="
M261.740173,295.501709 
	C252.796982,295.865967 243.652512,295.849121 234.326569,295.446167 
	C243.276352,295.080231 252.407623,295.100403 261.740173,295.501709 
z"/>
<path fill="#1B1C1C" opacity="1.000000" stroke="none" 
	d="
M236.475388,310.997681 
	C243.477921,310.795868 250.948273,310.597015 258.709290,310.699097 
	C251.647736,311.000214 244.295456,311.000427 236.475388,310.997681 
z"/>
<path fill="#77C14E" opacity="1.000000" stroke="none" 
	d="
M144.915665,217.636353 
	C144.068665,217.519760 143.091431,217.098602 142.060699,216.328705 
	C142.933273,216.430557 143.859360,216.881165 144.915665,217.636353 
z"/>
<path fill="#1B1C1C" opacity="1.000000" stroke="none" 
	d="
M261.303589,310.977966 
	C261.468994,310.676514 261.930664,310.359344 262.687592,310.027649 
	C262.521851,310.329529 262.060883,310.645905 261.303589,310.977966 
z"/>
<path fill="#1B1C1C" opacity="1.000000" stroke="none" 
	d="
M275.724091,283.204590 
	C275.809479,283.590149 275.652100,284.130310 275.252930,284.828369 
	C275.167877,284.443878 275.324615,283.901520 275.724091,283.204590 
z"/>
<path fill="#68B350" opacity="1.000000" stroke="none" 
	d="
M123.421783,244.030533 
	C123.286644,238.875824 125.524445,236.624451 130.562088,236.965881 
	C128.516281,239.280853 126.127632,241.604691 123.421783,244.030533 
z"/>
<path fill="#68B350" opacity="1.000000" stroke="none" 
	d="
M137.464294,231.045807 
	C138.695786,229.335480 140.413101,227.999298 142.817078,230.609375 
	C141.283249,230.925232 139.584747,230.949036 137.464294,231.045807 
z"/>
<path fill="#68B350" opacity="1.000000" stroke="none" 
	d="
M134.307373,233.901306 
	C134.790024,233.014679 135.567856,232.030106 136.725372,231.065247 
	C136.270874,231.991089 135.436707,232.897217 134.307373,233.901306 
z"/>
<path fill="#68B350" opacity="1.000000" stroke="none" 
	d="
M131.224731,236.757965 
	C131.743454,235.948761 132.534775,235.005508 133.660568,234.036102 
	C133.162476,234.881287 132.329880,235.752594 131.224731,236.757965 
z"/>
<path fill="#68B350" opacity="1.000000" stroke="none" 
	d="
M121.343201,245.995850 
	C121.521072,245.428177 121.986099,244.770935 122.791504,244.107300 
	C122.631371,244.702698 122.130867,245.304489 121.343201,245.995850 
z"/>
<path fill="#68B350" opacity="1.000000" stroke="none" 
	d="
M119.320465,247.952621 
	C119.503082,247.408890 119.958679,246.754395 120.747940,246.078384 
	C120.585556,246.651871 120.089500,247.246872 119.320465,247.952621 
z"/>
<path fill="#68B350" opacity="1.000000" stroke="none" 
	d="
M118.263466,248.952469 
	C118.210564,248.760971 118.403275,248.491348 118.831543,248.128220 
	C118.881096,248.314590 118.695084,248.594452 118.263466,248.952469 
z"/>
<path fill="#000000" opacity="1.000000" stroke="none" 
	d="
M378.372040,305.004761 
	C376.927338,304.990356 375.931183,304.998230 374.937897,304.948792 
	C374.622650,304.933075 374.315002,304.764709 374.005127,304.662201 
	C374.325653,298.623901 379.523804,294.323730 386.891510,293.999054 
	C392.556244,293.749390 397.575867,298.194397 398.600250,305.004883 
	C391.949829,305.004883 385.385773,305.004883 378.372040,305.004761 
z"/>
<path fill="#000000" opacity="1.000000" stroke="none" 
	d="
M233.674377,340.147339 
	C233.770798,340.326813 233.665344,340.637085 233.300720,341.039185 
	C233.116287,340.811920 233.259933,340.527618 233.674377,340.147339 
z"/>
</svg>