<?xml version="1.0" encoding="UTF-8"?>
<svg width="300" height="300" viewBox="0 0 300 300" fill="none" xmlns="http://www.w3.org/2000/svg">
  <!-- Pin shape -->
  <path d="M150 20C108.4 20 75 53.4 75 95C75 155 150 280 150 280C150 280 225 155 225 95C225 53.4 191.6 20 150 20Z" fill="black"/>
  
  <!-- Wrench shape -->
  <path d="M180 80C164.5 80 152 92.5 152 108C152 110.5 152.3 112.9 152.9 115.1L115.1 152.9C112.9 152.3 110.5 152 108 152C92.5 152 80 164.5 80 180C80 195.5 92.5 208 108 208C123.5 208 136 195.5 136 180C136 177.5 135.7 175.1 135.1 172.9L172.9 135.1C175.1 135.7 177.5 136 180 136C195.5 136 208 123.5 208 108C208 92.5 195.5 80 180 80Z" fill="#4ADE80"/>
</svg>